# xmcd
#
# Track frame offsets:
#	150
#	22016
#	33801
#	53478
#	70781
#	83984
#	105714
#	118642
#	130211
#	145691
#	157693
#	171368
#	182881
#	202615
#
# Disc length: 2888
#
# Revision: 1
# Processed by: cddbd v1.5.1PL0 Copyright (c) Steve Scherf et al.
# Submitted via: dBpowerAMP V4.0
# Normalized: r0:DSETVAR1,TDELIM( - )
#
DISCID=ae0b460e
DTITLE=Various Artist - Every day i have the blues cd1
DYEAR=2000
DGENRE=blues
TTITLE0=B.B. King - Every day i have the blues
TTITLE1=John Lee Hooker - Boogie Chillun
TTITLE2=Otis Spann - Worried life blues
TTITLE3=Memphis slim - Cow cow blues
TTITLE4=Dinah Washingthon - Baby get lost
TTITLE5=Lightnin' Hopkins - Suicide blues
TTITLE6=Robert Johnson - Kindhearted Woman blues
TTITLE7=Muddy Waters - Gypsy Woman
TTITLE8=Bessie smith - Poor Man's blues
TTITLE9=Bukka White - Parchman farm blues
TTITLE10=Blind Willie Johnson - God moves on the water
TTITLE11=Champion Jack Dupree - Chain gang blues
TTITLE12=Jimmy Witherspoon - Ain't nobody's business
TTITLE13=Blind Willie McTell - Death cell blues
EXTD=
EXTT0=
EXTT1=
EXTT2=
EXTT3=
EXTT4=
EXTT5=
EXTT6=
EXTT7=
EXTT8=
EXTT9=
EXTT10=
EXTT11=
EXTT12=
EXTT13=
PLAYORDER=
